<svg xmlns="http://www.w3.org/2000/svg" width="48" height="48" viewBox="0 0 48 48"><defs><style>.cls-1,.cls-2{fill:none;stroke:#445d82;stroke-linecap:round;stroke-linejoin:round;}.cls-1{stroke-width:2px;}.cls-3{fill:#d93644;fill-opacity:0;}</style></defs><g id="_48_Shopping_Cart" data-name="48_Shopping Cart"><path id="Op_component_1" data-name="Op component 1" class="cls-1" d="M39.59,12.88c3,0,4.84,1.48,4.74,4.55a19.57,19.57,0,0,1-3,9.82,10.29,10.29,0,0,1-4.82,4c-3,1.17-19.07,1.55-22.49,1.21-2.22-.22-2.83-1-2.93-3.06-.11-2.25-.38-10.93-3-18.66C13.52,12.78,33.8,12.94,39.59,12.88Z"/><path id="Op_component_1-2" data-name="Op component 1" class="cls-1" d="M5.38,6.15c-1.32-.32-2.59,1.74-2.93.73S4.33,5.86,5.38,6.15Z"/><path class="cls-1" d="M8.13,10.76C7.47,8.55,6.67,6.5,5.38,6.15"/><path class="cls-2" d="M38.83,19.59c0,1-.66,1.4-1.57,1.4s-1.73-.42-1.73-1.4a2,2,0,0,1,1.65-2A2,2,0,0,1,38.83,19.59Z"/><path class="cls-2" d="M27.89,19.46A1.63,1.63,0,0,1,26.17,21a1.52,1.52,0,0,1-1.51-1.71c.18-.81.68-1.71,1.51-1.71A2,2,0,0,1,27.89,19.46Z"/><path class="cls-2" d="M17.81,19.5c-.38.86-.74,1.71-1.65,1.71a1.72,1.72,0,0,1,0-3.43C17.07,17.78,18.14,18.77,17.81,19.5Z"/><ellipse class="cls-2" cx="20.77" cy="25.8" rx="1.65" ry="1.68"/><path class="cls-2" d="M33.4,25.8c-.19.91-.75,1.69-1.66,1.69a1.59,1.59,0,0,1-1.66-1.69c.22-1.22.75-1.69,1.66-1.69S33.59,24.86,33.4,25.8Z"/><path class="cls-1" d="M17.29,41.56A2.58,2.58,0,0,1,14.92,44c-1.25.21-2.36-1.09-2.36-2.42a2.39,2.39,0,0,1,2.36-2.42A2.15,2.15,0,0,1,17.29,41.56Z"/><path class="cls-1" d="M31.65,41.42A2.55,2.55,0,0,1,29.12,44a2.68,2.68,0,0,1-2.45-2.65,2.27,2.27,0,0,1,2.45-2.19A2.5,2.5,0,0,1,31.65,41.42Z"/><path class="cls-1" d="M11.09,29.24c0,1.31.1,2.67.13,3.25.08,2.46.58,3.41,2.17,3.88,2.69.81,13,.69,15.73.7a4.61,4.61,0,0,1,4,1.84"/><path id="Container" class="cls-3" d="M0,0H48V48H0Z"/></g></svg>